<svg width="92" height="92" viewBox="0 0 92 92" fill="none" xmlns="http://www.w3.org/2000/svg">
<path d="M81.0213 4.88298e-05L70.2821 10.7393L81.2384 21.6956L91.9776 10.9564L81.0213 4.88298e-05Z" fill="#EEEADA"/>
<path d="M67.0199 9.87016C65.7917 8.64191 63.8312 8.64191 62.603 9.87016L54.0053 18.4678C52.777 19.6961 52.777 21.6565 54.0053 22.8848L69.1221 38.0016C70.3503 39.2298 72.3108 39.2298 73.539 38.0016L82.1367 29.4039C83.365 28.1757 83.365 26.2152 82.1367 24.987L67.0199 9.87016ZM76.0428 28.9551L73.0903 31.9076C72.3817 32.6162 71.2479 32.6162 70.5393 31.9076L60.052 21.4203C59.3434 20.7117 59.3434 19.578 60.052 18.8694L63.0045 15.9169C63.7131 15.2083 64.8469 15.2083 65.5555 15.9169L76.0428 26.4042C76.7514 27.1128 76.7514 28.2465 76.0428 28.9551Z" fill="#EEEADA"/>
<path d="M64.4454 35.7105L60.3827 31.6479L56.3201 27.5852L52.7771 24.0422C52.4937 23.7588 51.9976 23.7824 51.7142 24.0658C51.5252 24.2548 51.4071 24.491 51.478 24.7272L52.4228 28.6245L39.4554 41.5683C38.3689 42.6548 38.3216 44.5208 39.3373 45.5364L46.4942 52.6933C47.5098 53.709 49.3286 53.6145 50.4151 52.528L63.3825 39.5606L67.3034 40.529C67.5632 40.5998 67.823 40.4817 68.012 40.3164C68.2954 40.033 68.2954 39.5369 68.012 39.2535L64.4454 35.7105ZM57.6428 39.8204L48.927 48.5362C48.3365 49.1267 47.2736 49.0322 46.565 48.3236L43.6834 45.4419C42.9748 44.7333 42.8567 43.6232 43.4472 43.0563L52.163 34.3405C52.7535 33.75 53.7691 33.9626 54.4777 34.6712L57.3594 37.5529C58.068 38.2378 58.2333 39.2299 57.6428 39.8204Z" fill="#EEEADA"/>
<path d="M10.8895 70.1505L0 81.04L10.9563 91.9964L21.8459 81.1068L10.8895 70.1505Z" fill="#EEEADA"/>
<path d="M43.5417 61.4564C42.4079 62.5902 40.6128 62.5665 39.5027 61.4564L30.5743 52.528C29.4405 51.3943 29.3933 49.5755 30.5271 48.4418L32.771 46.1979C31.7081 45.5365 30.1728 45.6782 29.2516 46.6939L12.4105 65.3301C11.4185 66.4166 11.5129 68.07 12.5522 69.1093L22.9214 79.4785C23.9607 80.5178 25.6141 80.5886 26.7006 79.5966L45.3368 62.7319C46.3525 61.8107 46.447 60.2754 45.7856 59.2125L43.5417 61.4564Z" fill="#EEEADA"/>
<path d="M31.5191 51.4178L40.4003 60.299C40.9199 60.8186 41.7938 60.8186 42.3135 60.299L43.6598 58.9526C44.1795 58.433 44.1795 57.5591 43.6598 57.0394L34.7787 48.1583C34.259 47.6386 33.3851 47.6386 32.8655 48.1583L31.5191 49.5046C30.9995 50.0243 30.9995 50.8746 31.5191 51.4178Z" fill="#EEEADA"/>
</svg>
