<svg width="527" height="379" viewBox="0 0 527 379" fill="none" xmlns="http://www.w3.org/2000/svg">
<path d="M167.393 338.2H161.753V375H167.393C171.953 375 172.753 373 172.753 368.96V344.24C172.753 340.2 171.953 338.2 167.393 338.2ZM170.673 369.08C170.673 372.36 169.833 373.24 167.073 373.24H163.833V339.96H167.073C169.833 339.96 170.673 340.84 170.673 344.12V369.08ZM188.971 375L186.051 362.24C187.891 361.48 188.491 359.64 188.491 356.76V344.24C188.491 340.2 187.811 338.2 183.651 338.2H177.691V375H179.771V362.72H183.331C183.651 362.72 183.971 362.72 184.251 362.68L186.971 375H188.971ZM183.011 361.08H179.771V339.96H183.011C185.691 339.96 186.451 340.84 186.451 344.12V356.96C186.451 360.2 185.691 361.08 183.011 361.08ZM193.207 375H195.287V338.2H193.207V375ZM199.518 338.2L204.318 375H208.278L213.038 338.2H211.038L206.558 373.08H206.038L201.558 338.2H199.518ZM225.18 339.96V338.2H217.3V375H225.18V373.24H219.38V357.48H225.14V355.72H219.38V339.96H225.18ZM244.258 339.96V338.2H236.378V375H238.458V357.56H244.258V355.8H238.458V339.96H244.258ZM254.555 375.44C257.595 375.44 260.075 374.04 260.075 369.48V343.72C260.075 339.16 257.595 337.76 254.555 337.76C251.475 337.76 249.035 339.16 249.035 343.72V369.48C249.035 374.04 251.475 375.44 254.555 375.44ZM254.555 373.64C252.635 373.64 251.115 372.64 251.115 369.48V343.72C251.115 340.56 252.635 339.56 254.555 339.56C256.435 339.56 257.995 340.56 257.995 343.72V369.48C257.995 372.64 256.435 373.64 254.555 373.64ZM276.299 375L273.379 362.24C275.219 361.48 275.819 359.64 275.819 356.76V344.24C275.819 340.2 275.139 338.2 270.979 338.2H265.019V375H267.099V362.72H270.659C270.979 362.72 271.299 362.72 271.579 362.68L274.299 375H276.299ZM270.339 361.08H267.099V339.96H270.339C273.019 339.96 273.779 340.84 273.779 344.12V356.96C273.779 360.2 273.019 361.08 270.339 361.08ZM296.455 338.2L292.095 356.56H291.935L287.575 338.2H285.495L290.975 360V375H293.055V360L298.535 338.2H296.455ZM306.773 375.44C309.813 375.44 312.293 374.04 312.293 369.48V343.72C312.293 339.16 309.813 337.76 306.773 337.76C303.693 337.76 301.253 339.16 301.253 343.72V369.48C301.253 374.04 303.693 375.44 306.773 375.44ZM306.773 373.64C304.853 373.64 303.333 372.64 303.333 369.48V343.72C303.333 340.56 304.853 339.56 306.773 339.56C308.653 339.56 310.213 340.56 310.213 343.72V369.48C310.213 372.64 308.653 373.64 306.773 373.64ZM322.758 375.44C325.798 375.44 328.278 374.04 328.278 369.48V338.2H326.198V369.48C326.198 372.64 324.638 373.64 322.758 373.64C320.838 373.64 319.318 372.64 319.318 369.48V338.2H317.238V369.48C317.238 374.04 319.678 375.44 322.758 375.44ZM344.502 375L341.582 362.24C343.422 361.48 344.022 359.64 344.022 356.76V344.24C344.022 340.2 343.342 338.2 339.182 338.2H333.222V375H335.302V362.72H338.862C339.182 362.72 339.502 362.72 339.782 362.68L342.502 375H344.502ZM338.542 361.08H335.302V339.96H338.542C341.222 339.96 341.982 340.84 341.982 344.12V356.96C341.982 360.2 341.222 361.08 338.542 361.08ZM357.24 373.24V338.2H355.16V375H363.24V373.24H357.24ZM367.863 375H369.943V338.2H367.863V375ZM382.774 339.96V338.2H374.894V375H376.974V357.56H382.774V355.8H376.974V339.96H382.774ZM395.43 339.96V338.2H387.55V375H395.43V373.24H389.63V357.48H395.39V355.72H389.63V339.96H395.43Z" fill="#EEEADA"/>
<path d="M159.55 188.498L157.266 241.053M1 148.869C3.24658 183.526 18.2361 214.72 41.328 237.775C66.4455 262.893 101.102 278.434 139.404 278.434C177.707 278.434 212.4 262.893 237.48 237.812C260.683 214.609 275.709 183.231 277.845 148.317L1 148.869ZM241.863 46.1526C240.464 44.6058 238.99 43.0958 237.517 41.6226C212.4 16.5419 177.707 1 139.404 1C101.102 1 66.4455 16.5419 41.328 41.6226C40.5177 42.396 39.7812 43.1694 39.0078 43.9797C38.2343 44.7899 38.3816 44.6426 37.6082 45.4529L241.863 46.1526ZM62.026 55.4336C82.3926 36.7243 109.573 25.3073 139.404 25.3073C169.236 25.3073 196.453 36.7243 216.819 55.4704L62.026 55.4336ZM248.566 106.589L177.338 101.875C167.652 92.1891 154.246 86.186 139.441 86.186C124.636 86.186 111.23 92.1891 101.544 101.875L30.4634 106.589H248.566ZM92.3364 165.258C97.1979 174.208 104.564 181.61 113.476 186.546L116.349 251.77C94.0306 247.203 74.0692 236.081 58.5272 220.613C42.3224 204.408 30.9421 183.341 26.7804 159.808L92.3364 165.258ZM186.509 165.258C181.61 174.208 174.281 181.61 165.369 186.546L162.533 251.807C184.851 247.24 204.813 236.118 220.355 220.649C236.56 204.445 247.94 183.378 252.102 159.844L186.509 165.258ZM139.404 105.19C158.482 105.19 173.95 120.658 173.95 139.736C173.95 158.813 158.482 174.281 139.404 174.281C120.327 174.281 104.858 158.813 104.858 139.736C104.895 120.658 120.363 105.19 139.404 105.19ZM58.5272 52.3399C79.7777 32.7099 108.21 20.6668 139.404 20.6668C171.446 20.6668 200.541 33.3361 221.938 53.8868L58.5272 52.3399ZM257.368 123.199C258.105 128.576 258.473 134.101 258.473 139.699C258.473 178.222 240.206 212.437 211.847 234.203L257.368 123.199ZM68.8026 235.565C39.4129 213.873 20.3722 179.032 20.3722 139.699C20.3722 132.112 21.0719 124.709 22.4346 117.528L68.8026 235.565ZM42.4697 48.3624C55.8387 34.1831 72.3013 22.9502 90.716 15.6949L42.4697 48.3624ZM177.412 11.9751C178.369 12.2697 179.401 12.6012 180.358 12.9327C201.756 19.7829 220.76 31.9734 235.897 47.8468L177.412 11.9751ZM272.358 148.427C268.859 202.714 232.803 248.161 183.489 265.471L272.358 148.427ZM97.2715 266.097C46.0053 249.008 8.62364 201.609 6.3034 145.15L97.2715 266.097ZM48.8043 53.5921C57.6802 44.2375 67.9923 36.2824 79.3726 30.0214L48.8043 53.5921ZM192.033 26.2648C206.286 32.8941 219.103 42.1014 229.82 53.3711L192.033 26.2648ZM264.476 139.699C264.476 184.409 241.053 223.596 205.77 245.693L264.476 139.699ZM75.9106 247.424C39.0814 225.695 14.4058 185.588 14.4058 139.699L75.9106 247.424ZM184.041 139.699C184.041 164.338 164.08 184.299 139.441 184.299C114.802 184.299 94.8776 164.338 94.8776 139.699H184.041ZM35.1038 153.952L91.2316 158.592L35.1038 153.952ZM243.741 153.952L187.614 158.592L243.741 153.952ZM179.585 108.91L235.676 112.629L179.585 108.91ZM99.2972 108.91L43.2063 112.629L99.2972 108.91ZM119.332 188.498L121.616 241.053L119.332 188.498Z" stroke="#EEEADA" stroke-width="1.47317" stroke-miterlimit="10"/>
<path d="M400.689 78.7271C404.479 73.2665 407.761 68.2536 411.282 63.4495C413.938 59.839 416.623 56.1987 419.786 53.0955C423.188 49.7833 427.663 49.8132 431.065 51.8422C435.392 54.4084 434.705 59.3019 432.467 62.6439C427.484 70.1036 422.084 77.2649 417.011 84.665C415.489 86.9029 414.296 89.3795 413.281 91.886C412.983 92.6021 413.52 93.9747 414.117 94.661C419.1 100.36 424.5 105.701 429.125 111.669C432.885 116.503 435.66 122.083 439.032 127.185C440.255 129.035 441.479 130.557 439.301 132.407C436.734 134.585 433.78 135.958 430.438 135.869C429.603 135.839 428.917 134.048 427.962 133.392C420.353 128.11 415.4 120.322 409.253 113.668C407.134 111.371 405.016 109.073 402.688 107.014C402.211 106.567 400.391 106.716 399.973 107.223C397.854 109.789 395.945 112.535 394.095 115.31C391.797 118.771 389.828 122.441 387.381 125.783C384.904 129.185 382.099 132.348 379.235 135.421C377.832 136.913 370.582 136.465 368.851 135.152C367.836 134.377 366.583 133.81 365.748 132.885C365.151 132.228 364.584 131.005 364.793 130.229C366.285 124.918 369.06 120.293 372.491 115.936C378.041 108.924 383.293 101.673 388.813 94.661C390.037 93.1094 390.126 91.9158 388.933 90.6626C383.86 85.3214 378.668 80.0996 373.655 74.6988C370.074 70.8496 366.464 66.9705 363.361 62.7632C360.884 59.3915 361.928 51.0962 365.36 49.2462C367.508 48.0825 371.805 47.993 373.536 49.3954C378.877 53.543 383.382 58.5858 388.008 63.4495C391.021 66.6125 393.766 70.0141 396.571 73.3561C397.884 74.8778 399.018 76.5488 400.689 78.7271Z" fill="#D46C68"/>
<path d="M503.186 73.5349C506.17 69.6559 508.795 66.0752 511.57 62.6736C513.629 60.1372 515.748 57.5413 518.105 55.4525C520.612 53.2146 523.506 53.6622 525.475 55.5421C527.982 57.9292 527.027 61.659 525.266 64.0461C521.298 69.3575 517.091 74.4002 513.062 79.6519C511.839 81.2333 510.824 83.0535 509.899 84.9035C509.631 85.4108 509.84 86.5447 510.168 87.1414C512.764 92.0052 515.688 96.66 518.045 101.703C519.955 105.791 521.149 110.386 522.79 114.653C523.387 116.175 524.013 117.488 522.432 118.711C520.582 120.143 518.523 120.949 516.374 120.561C515.837 120.471 515.599 119.009 515.032 118.413C510.705 113.609 508.318 107.133 505.066 101.404C503.932 99.4351 502.828 97.4657 501.545 95.6455C501.276 95.2576 500.112 95.1979 499.784 95.556C498.173 97.3463 496.651 99.2859 495.159 101.255C493.339 103.702 491.698 106.388 489.758 108.745C487.819 111.132 485.7 113.34 483.522 115.459C482.448 116.503 477.852 115.459 476.868 114.265C476.301 113.579 475.555 113.012 475.107 112.206C474.779 111.639 474.57 110.625 474.779 110.058C476.271 106.089 478.539 102.747 481.194 99.7036C485.491 94.7802 489.609 89.6777 493.876 84.7543C494.831 83.6801 495.01 82.7551 494.353 81.6511C491.668 77.0261 488.863 72.5204 486.207 67.8655C484.328 64.5534 482.388 61.2114 480.836 57.6606C479.613 54.8259 481.135 48.5001 483.522 47.3662C485.044 46.6501 487.789 47.0081 488.774 48.2315C491.698 51.9316 494.055 56.2582 496.532 60.4655C498.143 63.1808 499.545 66.0752 501.007 68.9397C501.753 70.3123 502.35 71.6849 503.186 73.5349Z" fill="#D46C68"/>
<path d="M471.676 211.51C471.109 209.361 470.214 207.213 469.975 205.035C469.438 199.992 469.08 194.949 468.841 189.876C468.692 186.534 466.872 184.923 463.858 185.251C458.278 185.878 452.728 186.773 447.238 187.847C442.255 188.832 437.301 190.085 432.438 191.518C431.334 191.846 430.468 193.278 429.692 194.352C428.708 195.725 427.932 197.217 427.037 198.649C426.022 197.366 425.038 196.053 423.217 193.726C423.307 201.454 423.396 208.197 423.486 214.911C422.621 215.031 421.725 215.15 420.86 215.269C419.786 208.914 418.712 202.588 417.638 196.232C416.802 196.292 415.937 196.351 415.101 196.381C415.4 212.554 415.728 228.697 416.026 244.869C415.459 244.929 414.922 244.989 414.355 245.048C413.371 240.602 411.998 236.157 411.461 231.651C410.596 224.579 409.999 217.448 409.79 210.346C409.462 199.335 409.133 198.828 398.093 198.172C396.452 198.082 394.811 198.052 393.2 197.993C391.409 186.236 394.035 182.476 404.926 177.046C417.817 170.6 431.751 168.542 445.567 165.767C461.889 162.484 478.3 159.56 494.652 156.308C499.426 155.353 503.066 156.785 504.857 161.082C507.87 168.333 506.199 174.121 500.381 176.3C492.593 179.194 484.507 181.313 476.748 184.237C475.227 184.804 473.645 187.459 473.615 189.19C473.526 194.412 474.272 199.664 474.51 204.915C474.6 207.004 474.242 209.122 474.093 211.241C473.257 211.331 472.452 211.42 471.676 211.51Z" fill="#D46C68"/>
</svg>
