<?xml version="1.0" encoding="utf-8"?>
<!-- Generator: Adobe Illustrator 24.2.0, SVG Export Plug-In . SVG Version: 6.00 Build 0)  -->
<svg version="1.1" id="Layer_1" xmlns="http://www.w3.org/2000/svg" xmlns:xlink="http://www.w3.org/1999/xlink" x="0px" y="0px"
	 viewBox="0 0 1202 693" style="enable-background:new 0 0 1202 693;" xml:space="preserve">
<style type="text/css">
	.st0{fill:none;stroke:#EEEADA;stroke-width:2;stroke-linecap:square;stroke-miterlimit:10;opacity:0.6;}
</style>
<path class="st0" d="M0,660.1l262.2-153.3c4.3-2.5,9.1-3.8,14-3.9c4.9-0.1,9.8,1.1,14.1,3.4l133.5,72c0.1,0,0.2,0.1,0.3,0.1
	c0.1,0,0.2,0,0.3-0.1l265.4-155.2c0.1,0,0.2-0.1,0.2-0.2c0.1-0.1,0.1-0.2,0.1-0.3c0-0.1,0-0.2-0.1-0.3c-0.1-0.1-0.1-0.2-0.2-0.2
	L457.3,282.4c-4.3-2.6-7.8-6.2-10.2-10.5c-2.4-4.3-3.7-9.3-3.7-14.2c0-5,1.4-9.9,3.9-14.2c2.5-4.3,6.1-7.9,10.4-10.4l124.1-72.5
	c4.4-2.6,9.3-3.9,14.4-3.9c5.1,0,10,1.3,14.4,3.8L1025,399.4c0.1,0.1,0.2,0.1,0.3,0.1c0.1,0,0.2,0,0.3-0.1l115.2-67.4
	c0.1,0,0.2-0.1,0.2-0.2c0.1-0.1,0.1-0.2,0.1-0.3c0-0.1,0-0.2-0.1-0.3c-0.1-0.1-0.1-0.2-0.2-0.2L941.5,201.1
	c-4.1-2.7-7.5-6.4-9.7-10.7c-2.3-4.3-3.4-9.2-3.3-14.1c0.1-4.9,1.5-9.7,4-13.9c2.5-4.2,6-7.7,10.2-10.2L1202,0.7"/>
<path class="st0" d="M1202,25.1L956.9,176.5c-0.1,0-0.2,0.1-0.2,0.2c-0.1,0.1-0.1,0.2-0.1,0.3c0,0.1,0,0.2,0,0.3
	c0,0.1,0.1,0.2,0.2,0.2l199.4,129.9c4.1,2.7,7.5,6.4,9.7,10.7c2.3,4.3,3.4,9.2,3.3,14.1s-1.5,9.7-4,13.9c-2.5,4.2-6,7.7-10.2,10.2
	l-115.3,67.4c-4.4,2.5-9.3,3.9-14.4,3.9c-5.1,0-10-1.3-14.4-3.8l-414.6-239c-0.1-0.1-0.2-0.1-0.3-0.1c-0.1,0-0.2,0-0.3,0.1
	l-124.1,72.6c-0.1,0-0.2,0.1-0.2,0.2c-0.1,0.1-0.1,0.2-0.1,0.3c0,0.1,0,0.2,0.1,0.3c0.1,0.1,0.1,0.2,0.2,0.2L704.3,398
	c4.3,2.6,7.8,6.2,10.2,10.5c2.4,4.3,3.7,9.3,3.7,14.2c0,5-1.4,9.9-3.8,14.2c-2.5,4.3-6.1,7.9-10.4,10.4L438.6,602.6
	c-4.3,2.5-9.1,3.8-14,3.9c-4.9,0.1-9.8-1.1-14.1-3.4L277,531c-0.1,0-0.2-0.1-0.3-0.1c-0.1,0-0.2,0-0.3,0.1L0,690.9"/>
</svg>
